<?xml version="1.0" encoding="utf-8"?>
<!-- Generator: Adobe Illustrator 16.0.0, SVG Export Plug-In . SVG Version: 6.00 Build 0)  -->
<!DOCTYPE svg PUBLIC "-//W3C//DTD SVG 1.1//EN" "http://www.w3.org/Graphics/SVG/1.1/DTD/svg11.dtd">
<svg version="1.1" id="Layer_1" xmlns="http://www.w3.org/2000/svg" xmlns:xlink="http://www.w3.org/1999/xlink" x="0px" y="0px"
	 width="1000px" height="402.077px" viewBox="-215.549 -86.179 1000 402.077"
	 enable-background="new -215.549 -86.179 1000 402.077" xml:space="preserve">
<g>
	<rect x="-215.549" y="-86.179" fill="#EC2227" width="1000" height="402.077"/>
	<polyline fill="#FFFFFF" points="514.01,-54.726 626.046,-54.726 626.134,16.094 574.757,16.094 574.757,82.015 626.158,82.002 
		626.158,151.415 574.834,151.425 574.795,216.377 626.046,216.377 626.046,285.321 514.113,285.386 514.01,-54.726 	"/>
	<polyline fill="#FFFFFF" points="646.186,285.455 755.484,285.455 755.484,216.564 703.854,216.564 703.854,-54.726 
		646.21,-54.591 646.186,285.455 	"/>
	<path fill="#FFFFFF" d="M257.373,9.06c0,18.347,0,82.079,0,101.027c13.482-1.661,37.094-11.899,37.094-52.566
		C294.467,16.855,271.238,9.06,257.373,9.06 M514.518-54.726l-52.691,340.079h-68.684L354.965,53.377
		c1.068,70.16-36.742,100.475-36.742,100.475l42.75,131.469h-59.718L264.761,175l-7.361,0.181v110.144h-60.101V-54.548
		c0,0,79.16-0.392,89.914-0.176c24.497,0.495,47.96,34.936,60.989,66.453l-8.739-66.453h60.353l27.104,187.46l27.677-187.46h59.922
		V-54.726z"/>
	<polyline fill="#FFFFFF" points="-62.89,285.403 -34.967,147.204 -34.967,285.321 26.246,285.321 26.246,-54.726 -51.139,-54.726 
		-79.052,98.119 -106.964,-54.726 -184.345,-54.726 -184.345,285.321 -123.115,285.321 -123.115,147.204 -95.206,285.403 
		-62.89,285.403 	"/>
	<path fill="#FFFFFF" d="M111.361,75.686L95.697,188.575h31.832L111.361,75.686 M87.368,252.371l-6.369,32.95H23.71L72.175-54.726
		h77.381l48.487,340.043h-57.303l-6.357-32.949H87.368V252.371L87.368,252.371z"/>
</g>
</svg>
